<svg xmlns="http://www.w3.org/2000/svg" viewBox="0 0 260 130" fill="none" role="img" aria-label="Mediante island emblem">
  <g stroke="#C6A15A" stroke-width="5" stroke-linecap="round" stroke-linejoin="round" fill="none">
    <!-- Sweeping shoreline -->
    <path d="M8 102 C 58 84, 96 108, 138 98 C 178 89, 214 98, 252 88"/>
    <!-- Island hill -->
    <path d="M72 100 C 104 70, 152 62, 214 90"/>
    <!-- Small boat accent -->
    <path d="M112 84 L 124 84"/>
    <!-- Tall palm trunk -->
    <path d="M148 68 C 151 56, 154 45, 158 34"/>
    <!-- Tall palm fronds -->
    <path d="M158 34 C 149 26, 138 24, 128 28"/>
    <path d="M158 34 C 154 24, 147 17, 136 14"/>
    <path d="M158 34 C 162 24, 171 17, 182 16"/>
    <path d="M158 34 C 168 28, 179 28, 188 34"/>
    <path d="M158 34 C 165 33, 174 37, 178 44"/>
    <!-- Short palm trunk -->
    <path d="M180 76 C 182 68, 184 60, 187 53"/>
    <!-- Short palm fronds -->
    <path d="M187 53 C 180 47, 171 46, 164 49"/>
    <path d="M187 53 C 185 45, 179 40, 171 39"/>
    <path d="M187 53 C 192 45, 200 42, 208 43"/>
    <path d="M187 53 C 194 50, 202 52, 208 57"/>
  </g>
</svg>
